<svg width="24" height="24" viewBox="0 0 24 24" fill="none" xmlns="http://www.w3.org/2000/svg">
<path d="M16.3996 20.9999H14.2456L12.2456 15.9999H5.75361L3.75361 20.9999H1.59961L7.99961 4.99985H9.99961L16.3996 20.9999ZM20.9996 11.9999V20.9999H18.9996V11.9999H20.9996ZM6.55361 13.9999H11.4456L8.99961 7.88485L6.55361 13.9999ZM19.5286 2.31985C19.5662 2.2256 19.6311 2.14479 19.7151 2.08786C19.799 2.03092 19.8982 2.00049 19.9996 2.00049C20.1011 2.00049 20.2002 2.03092 20.2841 2.08786C20.3681 2.14479 20.4331 2.2256 20.4706 2.31985L20.7236 2.92985C21.1481 3.96493 21.9534 4.79778 22.9736 5.25685L23.6906 5.57685C23.7824 5.61933 23.8601 5.68719 23.9146 5.77242C23.9691 5.85766 23.998 5.9567 23.998 6.05785C23.998 6.159 23.9691 6.25804 23.9146 6.34328C23.8601 6.42851 23.7824 6.49637 23.6906 6.53885L22.9326 6.87685C21.9372 7.32277 21.1451 8.12557 20.7126 9.12685L20.4666 9.69285C20.4282 9.78502 20.3633 9.86375 20.2802 9.91912C20.1971 9.9745 20.0995 10.0041 19.9996 10.0041C19.8997 10.0041 19.8021 9.9745 19.719 9.91912C19.6359 9.86375 19.5711 9.78502 19.5326 9.69285L19.2856 9.12785C18.8535 8.12638 18.0618 7.32322 17.0666 6.87685L16.3066 6.53885C16.2145 6.49649 16.1365 6.42862 16.0818 6.34328C16.0272 6.25794 15.9981 6.15871 15.9981 6.05735C15.9981 5.95599 16.0272 5.85676 16.0818 5.77142C16.1365 5.68608 16.2145 5.61821 16.3066 5.57585L17.0246 5.25585C18.0448 4.79747 18.8505 3.96536 19.2756 2.93085L19.5286 2.31985Z" fill="#B84A06"/>
</svg>
