<svg width="30" height="30" viewBox="0 0 30 30" fill="none" xmlns="http://www.w3.org/2000/svg">
<path d="M25 8.75H23.4875C23.65 8.2375 23.75 7.625 23.75 6.875C23.75 4.4625 21.7875 2.5 19.375 2.5C17.35 2.5 16 4.35 15.125 6.3625C14.2625 4.475 12.8375 2.5 10.625 2.5C8.2125 2.5 6.25 4.4625 6.25 6.875C6.25 7.625 6.35 8.2375 6.5125 8.75H5C3.625 8.75 2.5 9.875 2.5 11.25C2.5 12.625 3.625 13.75 5 13.75H25C26.375 13.75 27.5 12.625 27.5 11.25C27.5 9.875 26.375 8.75 25 8.75ZM19.375 5C20.4125 5 21.25 5.8375 21.25 6.875C21.25 8.75 20.4625 8.75 20 8.75H16.9C17.5375 6.775 18.4625 5 19.375 5ZM8.75 6.875C8.75 5.8375 9.5875 5 10.625 5C11.7375 5 12.7625 6.9125 13.375 8.75H10C9.5375 8.75 8.75 8.75 8.75 6.875ZM6.25 16.25H5V25C5 26.375 6.125 27.5 7.5 27.5H13.75V16.25H6.25ZM22.5 16.25H16.25V27.5H22.5C23.875 27.5 25 26.375 25 25V16.25H22.5Z" fill="#B84A06"/>
</svg>
