<svg width="31" height="31" viewBox="0 0 31 31" fill="none" xmlns="http://www.w3.org/2000/svg">
<path d="M17.9542 9.68754C17.9542 8.78337 18.2125 8.13754 18.3417 7.75004H19.1167L20.2792 4.52087H21.3125V2.58337H9.6875V4.52087H10.7208L11.8833 7.75004H12.6583C12.9167 8.13754 13.0458 8.78337 13.0458 9.68754C13.0458 11.3667 7.75 17.6959 7.75 22.7334V25.3167C7.75 27.125 11.2375 28.2875 15.5 28.2875C19.7625 28.2875 23.25 27.125 23.25 25.3167V22.7334C23.25 17.6959 17.9542 11.3667 17.9542 9.68754ZM15.5 19.375C14.8149 19.375 14.1578 19.1029 13.6733 18.6184C13.1888 18.1339 12.9167 17.4768 12.9167 16.7917C12.9167 16.1066 13.1888 15.4495 13.6733 14.965C14.1578 14.4805 14.8149 14.2084 15.5 14.2084C16.1851 14.2084 16.8422 14.4805 17.3267 14.965C17.8112 15.4495 18.0833 16.1066 18.0833 16.7917C18.0833 17.4768 17.8112 18.1339 17.3267 18.6184C16.8422 19.1029 16.1851 19.375 15.5 19.375Z" fill="#B84A06"/>
</svg>
