<svg width="30" height="30" viewBox="0 0 30 30" fill="none" xmlns="http://www.w3.org/2000/svg">
<g clip-path="url(#clip0_24_82)">
<path d="M22.708 8.43833C22.9077 8.47887 23.0998 8.49651 23.1317 8.78215C23.1479 8.92764 23.3442 8.94253 23.4891 8.94645C23.7491 8.95354 23.817 8.99555 23.8016 9.22729C23.7891 9.41444 23.8496 9.46981 24.0245 9.48522C24.2549 9.50549 24.4708 9.57118 24.7132 9.47796C24.9314 9.39411 25.0562 9.50479 25.1598 9.76758C25.1818 9.82325 25.2133 9.89749 25.2783 9.85735C25.5748 9.67442 25.9288 9.81692 26.2464 9.65549C26.4574 9.54827 26.7581 9.59684 26.9698 9.80028C27.0721 9.89866 27.1936 9.94594 27.3206 9.85946C27.4554 9.76776 27.5669 9.85214 27.6362 9.92344C27.8564 10.1499 28.105 10.0826 28.3577 10.0344C28.3915 10.028 28.4243 10.0158 28.4575 10.0063C28.5947 9.96698 28.4661 10.2819 28.6199 10.1477C28.7014 10.0765 28.7584 10.0617 28.8506 10.0505C29.2705 9.99944 29.5802 10.2376 29.9022 10.4487L29.7482 10.8106C29.737 10.8077 29.7259 10.8051 29.7146 10.8028C29.6233 10.7837 29.5399 10.6239 29.5123 10.6676C29.4554 10.7578 29.3408 10.835 29.3557 10.9612C29.3748 11.1232 29.2947 11.1614 29.1513 11.1683C29.0236 11.1744 28.8931 11.197 28.7942 11.2979C28.7136 11.3803 28.6181 11.3819 28.5039 11.3775C28.2087 11.3661 28.0498 11.5063 28.0129 11.8055C27.975 12.1124 27.6884 12.2226 27.5368 12.4388C27.4878 12.5086 27.4439 12.4181 27.4176 12.3715C27.2973 12.1583 27.3718 11.9602 27.4791 11.7731C27.531 11.6827 27.6144 11.6107 27.6803 11.5277C27.7203 11.4774 27.8242 11.445 27.7769 11.3667C27.735 11.2975 27.6387 11.2787 27.5553 11.2808C27.451 11.2836 27.3805 11.3551 27.3324 11.4362C27.2487 11.5777 27.15 11.5569 27.0049 11.5308C26.6267 11.4631 26.2351 11.4234 25.9717 11.803C25.902 11.9034 25.6862 11.9181 25.752 12.0813C25.8139 12.2349 26.0046 12.1332 26.1338 12.173C26.2293 12.2024 26.3579 12.1695 26.3622 12.298C26.3668 12.4365 26.5078 12.5915 26.3505 12.7149C26.3017 12.7532 26.2576 12.7765 26.251 12.8418C26.2477 12.8746 26.2488 12.9244 26.2086 12.9243C26.1706 12.9241 26.1747 12.875 26.1708 12.8435C26.1679 12.8201 26.1699 12.7963 26.1672 12.7729C26.1597 12.7074 26.1886 12.6362 26.1377 12.5772C26.1199 12.6436 26.1138 12.7163 26.0824 12.7754C25.9326 13.0576 25.7728 13.3242 25.4226 13.4092C25.1018 13.487 25.0699 13.5527 25.1471 13.8767C25.1752 13.9948 25.1758 14.0954 25.0491 14.1372C24.9267 14.1776 24.8885 14.0639 24.8463 13.9851C24.8137 13.9244 24.7954 13.853 24.7848 13.7843C24.7693 13.6836 24.7134 13.6746 24.6349 13.7034C24.5739 13.7258 24.5091 13.8019 24.4534 13.7118C24.4149 13.6496 24.3904 13.6085 24.3349 13.6865C24.3017 13.7332 24.2494 13.7907 24.2559 13.8362C24.27 13.9351 24.3434 13.855 24.3911 13.8597C24.5274 13.873 24.6559 13.8892 24.4767 14.05C24.3955 14.1229 24.4198 14.2182 24.4384 14.3134C24.5336 14.7994 24.3253 15.1584 23.864 15.3232C23.7488 15.3643 23.6048 15.3573 23.5551 15.5198C23.5234 15.6233 23.476 15.6145 23.43 15.5109C23.3743 15.3856 23.291 15.4658 23.2285 15.5095C23.1437 15.5689 23.1423 15.6433 23.221 15.7146C23.2559 15.7463 23.2933 15.7754 23.326 15.8092C23.5487 16.0398 23.4703 16.3626 23.1672 16.483C23.0837 16.5162 23.0708 16.4592 23.0374 16.4117C22.9464 16.2826 22.7894 16.1303 22.6725 16.236C22.5218 16.3724 22.6812 16.5344 22.8011 16.6492C22.8894 16.7336 22.9933 16.8353 22.9709 16.945C22.9196 17.1959 23.1419 17.3484 23.156 17.5707C23.1624 17.6709 23.2589 17.6859 23.3392 17.7081C23.5748 17.7735 23.7942 17.9085 24.0546 17.8679C24.0993 17.8609 24.1651 17.8789 24.1684 17.9271C24.1731 17.9954 24.1021 17.9757 24.0607 17.9794C23.7637 18.0061 23.4596 17.9561 23.1925 17.8707C22.9865 17.8049 22.8123 17.568 22.6784 17.3703C22.5673 17.2056 22.4455 17.0485 22.3136 16.8998C22.2751 16.8564 22.203 16.829 22.2496 16.7633C22.3021 16.6893 22.3788 16.7184 22.4333 16.7664C22.5124 16.836 22.5815 16.9171 22.6557 16.9924C22.6803 17.0174 22.7155 17.0447 22.7453 17.0196C22.7802 16.9901 22.7428 16.9582 22.7245 16.9326C22.5312 16.6621 22.4588 16.3621 22.4853 16.0314C22.4952 15.9081 22.4751 15.7848 22.2921 15.8242C22.1347 15.8582 22.1389 15.7081 22.0842 15.6307C21.8548 15.3061 21.7696 15.2978 21.475 15.5609C21.4073 15.6213 21.3331 15.6745 21.2591 15.727C21.0046 15.9076 20.9375 16.1752 21.0683 16.4723C21.0951 16.5332 21.1607 16.6006 21.0882 16.6622C21.0214 16.719 20.9651 16.6471 20.9015 16.6254C20.6078 16.525 20.4972 16.2803 20.4568 16.0171C20.3966 15.6249 20.1014 15.3982 19.8904 15.1109C19.8363 15.0372 19.7554 15.0216 19.6706 15.0201C19.5646 15.0182 19.4577 15.0089 19.3528 15.0191C19.2874 15.0255 19.2253 15.016 19.164 15.0026C19.0595 14.9797 18.9975 15.114 19.0827 15.1787C19.1234 15.2095 19.1675 15.2375 19.2051 15.2709C19.2729 15.3311 19.2031 15.3675 19.1834 15.4185C19.059 15.741 18.7486 15.8241 18.482 15.9466C18.3152 16.0232 18.1573 16.139 17.9622 16.1504C17.926 16.1525 17.89 16.1716 17.89 16.213C17.89 16.2688 17.9342 16.2957 17.9812 16.3C18.1006 16.3107 18.2059 16.2456 18.3201 16.2274C18.4793 16.2021 18.556 16.31 18.4851 16.4547C18.3451 16.7402 18.1651 17.0036 17.9073 17.2043C17.5125 17.5117 17.4748 17.6373 17.6229 18.0978C17.7389 18.4587 17.7253 18.5131 17.4106 18.7518C17.2906 18.8429 17.1877 18.9264 17.2474 19.0989C17.271 19.1671 17.2768 19.2603 17.2203 19.2993C16.9945 19.4552 16.9207 19.7145 16.7789 19.9255C16.5511 20.2645 16.2018 20.2482 15.8659 20.2738C15.7606 20.2818 15.6812 20.1774 15.6705 20.0958C15.6321 19.8021 15.4864 19.5347 15.3854 19.2757C15.2301 18.877 15.1136 18.5334 15.2692 18.1131C15.3138 17.9924 15.255 17.7932 15.1756 17.676C15.0426 17.4796 14.9794 17.2818 14.9855 17.0508C14.9875 16.9773 14.9475 16.8856 14.8733 16.8964C14.671 16.9258 14.507 16.7395 14.3375 16.7776C14.1474 16.8205 13.9392 16.783 13.7645 16.8917C13.6471 16.9647 13.5433 16.9354 13.4364 16.8651C13.168 16.6887 13.016 16.4002 12.7818 16.1909C12.7573 16.169 12.7425 16.1258 12.7483 16.0934C12.8288 15.6476 12.6748 15.135 13.0955 14.7853C13.3 14.6152 13.3807 14.3547 13.5775 14.1804C13.6601 14.1072 13.6639 14.0081 13.5383 13.9591C13.4546 13.9265 13.3673 13.8794 13.3946 13.789C13.44 13.6383 13.3525 13.4796 13.4289 13.3417C13.4974 13.218 13.6306 13.2404 13.7472 13.2466C14.0947 13.2652 14.1264 13.2385 14.0647 12.8841C14.0386 12.734 14.0743 12.664 14.2026 12.5712C14.3513 12.4635 14.4935 12.3383 14.6447 12.2315C14.888 12.0595 14.9155 11.9927 14.7417 11.7316C14.6874 11.65 14.6521 11.57 14.6306 11.4781C14.571 11.2218 14.6112 11.1115 14.8531 10.9978C15.0219 10.9185 15.1485 10.8148 15.2227 10.6414C15.3517 10.3402 15.6001 10.1694 15.8942 10.0562C16.0149 10.0098 16.141 9.97735 16.2625 9.93276C16.479 9.85331 16.664 9.81657 16.8603 10.0243C16.9895 10.161 17.236 10.1399 17.407 10.2508C17.4651 10.2885 17.5555 10.295 17.5919 10.3446C17.7342 10.5384 17.8386 10.6387 17.9195 10.3035C17.938 10.2265 18.061 10.2009 18.1273 10.2799C18.2281 10.3999 18.3189 10.3718 18.4333 10.3058C18.6251 10.195 18.8476 10.2512 19.0542 10.2109C19.2735 10.1682 19.1296 10.0737 19.1014 9.99217L19.1053 9.98731C19.2778 10.0226 19.4495 10.0629 19.6231 10.0913C19.715 10.1063 19.7797 10.1085 19.8083 9.96463C19.8702 9.65239 20.0104 9.5935 20.3533 9.62579C20.476 9.63733 20.5945 9.61618 20.7188 9.67108C20.7906 9.70278 20.9193 9.68883 20.9393 9.56133C20.967 9.3835 21.0579 9.40641 21.1919 9.44567C21.3157 9.48194 21.4848 9.54399 21.483 9.29397C21.4825 9.22846 21.5635 9.21651 21.6204 9.20409C21.8703 9.1496 22.1034 9.03487 22.3728 9.04688C22.6202 9.0579 22.6869 8.89366 22.554 8.65782C22.6269 8.60005 22.6688 8.52018 22.708 8.43833ZM14.7805 13.3079C14.5197 13.3539 14.3427 13.5113 14.2365 13.738C14.1846 13.8488 14.1393 13.9481 14.0246 14.0027C13.9863 14.0208 13.9087 14.0104 13.9181 14.0603C13.9254 14.0992 14.0037 14.0911 14.0456 14.0765C14.2559 14.0032 14.4651 13.9345 14.6905 13.915C14.8136 13.9042 14.9241 13.9219 15.0314 13.971C15.1368 14.0193 15.1233 14.119 15.1291 14.2137C15.1337 14.2873 15.1913 14.3487 15.2649 14.3525C15.5009 14.3646 15.7258 14.5647 15.9758 14.3903C16.0144 14.3634 16.0982 14.369 16.1452 14.392C16.4053 14.5197 16.6834 14.4311 16.9507 14.4679C17.0816 14.4858 17.1281 14.3577 17.1532 14.2627C17.1838 14.1464 17.0895 14.1441 16.9989 14.1378C16.9205 14.1323 16.8392 14.0667 16.768 14.0789C16.5226 14.1209 16.4145 14.019 16.399 13.7834C16.3959 13.7358 16.367 13.6905 16.3079 13.6986C16.2681 13.7041 16.2716 13.7478 16.2565 13.7767C16.1696 13.944 15.9447 13.9727 15.8371 13.8304C15.8045 13.7873 15.8016 13.6729 15.7542 13.6966C15.5099 13.8192 15.4019 13.5924 15.2391 13.5137C15.1322 13.4619 15.0658 13.4429 15.055 13.5981C15.0494 13.6807 15.0032 13.7849 14.9101 13.7575C14.7763 13.7181 14.895 13.6253 14.9008 13.5553C14.9096 13.4504 14.9855 13.3107 14.7805 13.3079ZM15.7126 12.0224C15.8754 12.0309 15.8619 12.0224 15.9281 11.9182C16.0834 11.6733 16.0218 11.4312 15.9407 11.1874C15.9179 11.1188 15.927 10.992 15.8013 11.0368C15.7055 11.071 15.6456 11.1824 15.7077 11.2668C15.9174 11.552 15.6414 11.6897 15.5286 11.8622C15.458 11.9701 15.3162 12.0795 15.1965 11.8757C15.179 11.8459 15.1386 11.8218 15.1102 11.8499C15.0899 11.87 15.0818 11.9159 15.0875 11.9468C15.1249 12.1492 15.2843 12.1061 15.4206 12.1064C15.5257 12.1067 15.5923 11.9712 15.7126 12.0224ZM17.65 13.4463C17.6003 13.2527 17.3256 13.2694 17.285 13.0473C17.2757 12.9966 17.2065 13.1251 17.1572 13.1623C17.0792 13.2213 17.0004 13.239 16.952 13.1419C16.9125 13.0625 16.8699 13.0149 16.8011 13.0873C16.7225 13.1702 16.6294 13.2557 16.6445 13.3895C16.6541 13.4745 16.7195 13.523 16.7913 13.5074C17.0168 13.4583 17.2256 13.4898 17.4385 13.5736C17.5277 13.6086 17.6254 13.5666 17.65 13.4463ZM17.4277 15.2845C17.354 15.3004 17.3511 15.354 17.3472 15.4127C17.3359 15.5837 17.4588 15.6831 17.5492 15.7995C17.5902 15.8523 17.6323 15.9467 17.7001 15.9178C17.798 15.8761 17.7363 15.78 17.7178 15.7075C17.6827 15.5697 17.5811 15.4689 17.5099 15.3512C17.4937 15.3241 17.4584 15.3086 17.4277 15.2845ZM-0.211914 12.2619C0.0827539 12.0812 0.381113 11.9084 0.710938 11.797C0.753008 11.7829 0.811484 11.7568 0.806914 11.7059C0.801641 11.647 0.730566 11.6726 0.693301 11.6507C0.541484 11.5614 0.384102 11.4799 0.240195 11.3792C0.0624219 11.2548 0.0706836 11.1517 0.25373 11.0402C0.293223 11.0162 0.339687 11.0037 0.382695 10.9852C0.431973 10.9639 0.532285 10.9785 0.512598 10.9058C0.495313 10.842 0.40959 10.9023 0.354453 10.8992C0.308105 10.8966 0.258301 10.8993 0.216523 10.8829C0.135957 10.8514 0.0648828 10.7913 0.0792969 10.6997C0.0976367 10.583 0.20123 10.574 0.29832 10.5729C0.341563 10.5724 0.403555 10.6231 0.422773 10.5689C0.440645 10.5186 0.366582 10.5106 0.329258 10.4864C0.0504102 10.3054 0.0514648 10.2611 0.332363 10.098C0.403437 10.0567 0.47 10.0061 0.54459 9.97307C0.756641 9.87932 0.955918 9.82255 1.20617 9.91055C1.4774 10.0059 1.78244 10.0004 2.06855 10.0594C2.42352 10.1326 2.76055 10.1343 3.12254 10.0423C3.47023 9.95391 3.84295 10.0197 4.1917 10.1423C4.23359 10.157 4.28732 10.194 4.3199 10.1454C4.34938 10.1014 4.3134 10.0536 4.27397 10.0271C4.21508 9.98755 4.16123 9.95432 4.14629 9.87229C4.12936 9.77936 4.07439 9.75862 4.00273 9.83567C3.91777 9.92702 3.81553 9.92538 3.71123 9.87997C3.60447 9.8335 3.52285 9.7653 3.59674 9.63651C3.63811 9.56438 3.6834 9.49852 3.67842 9.40952C3.67139 9.28465 3.78055 9.25717 3.84277 9.29714C4.04299 9.42557 4.294 9.35438 4.49738 9.51153C4.66461 9.64079 4.89553 9.6787 5.11613 9.54423C5.24346 9.46665 5.37781 9.44948 5.34998 9.6784C5.3392 9.76729 5.36902 9.86432 5.43488 9.89919C5.6157 9.99487 5.7674 10.0686 5.51 10.2558C5.45604 10.2951 5.49617 10.369 5.56332 10.3881C5.64336 10.4108 5.75814 10.4265 5.76734 10.3245C5.77813 10.2049 5.81961 10.1399 5.91295 10.071C6.06523 9.95848 6.03963 9.88981 5.84404 9.88776C5.68514 9.88606 5.6307 9.72141 5.51111 9.65585C5.65039 9.63077 5.70512 9.46372 5.85529 9.45341C5.93703 9.44778 6.01801 9.43008 6.09916 9.41672C6.21494 9.39768 6.29422 9.34003 6.31127 9.21569C6.31994 9.15264 6.31537 9.09452 6.2409 9.07969C6.13467 9.0586 6.04127 8.99544 5.94541 9.14924C5.81006 9.36633 5.54187 9.18464 5.35443 9.28407L5.30586 9.15546C5.33522 9.12428 5.3385 9.09317 5.30574 9.06206C5.32982 8.93702 5.23906 8.82428 5.29971 8.68407C5.40143 8.44887 5.42697 8.42485 5.63205 8.55481C5.69322 8.5936 5.7715 8.63731 5.7476 8.7126C5.71555 8.81327 5.63029 8.72796 5.56936 8.73206C5.49371 8.73715 5.42088 8.74395 5.42006 8.83887C5.41924 8.93227 5.4882 8.94885 5.56625 8.94839C5.64846 8.94792 5.7309 8.956 5.81281 8.95161C5.96393 8.94352 6.05223 8.89225 5.93076 8.73575C5.87791 8.6676 5.81006 8.59237 5.89719 8.52358C5.98789 8.45192 6.05082 8.55604 6.09477 8.61147C6.13865 8.66684 6.29258 8.66678 6.20147 8.81895C6.17387 8.86506 6.31994 8.89653 6.39453 8.91493C6.43021 8.92372 6.46531 8.90192 6.47422 8.86214C6.49227 8.78133 6.45377 8.72749 6.38475 8.69087C6.37381 8.68533 6.36333 8.67894 6.3534 8.67176C5.91746 8.35137 5.92268 8.25089 6.39078 7.97538C6.47177 7.9276 6.55952 7.89236 6.65105 7.87085C7.13023 7.75659 7.62131 7.7236 8.10764 7.66671C8.3109 7.64292 8.52623 7.71253 8.73471 7.74798C8.81393 7.76145 8.95238 7.79415 8.95432 7.82503C8.96 7.91479 8.83531 7.91151 8.77959 7.96881C8.74795 8.00139 8.68895 8.0246 8.72041 8.07932C8.75633 8.14173 8.83584 8.14471 8.87018 8.09866C9.07473 7.82462 9.36002 7.89393 9.64063 7.87647C9.86897 7.86229 10.0996 7.83223 10.3343 7.75149C10.5927 7.66255 10.9009 7.63676 11.1912 7.6135C11.2494 7.60887 11.3242 7.64192 11.3649 7.61602C11.7161 7.39266 12.0097 7.72507 12.3376 7.70924C12.3767 7.70737 12.4068 7.74042 12.3943 7.77962C12.3849 7.80891 12.3546 7.85098 12.3307 7.85292C12.1669 7.86633 12.0022 7.86985 11.8379 7.8787C11.8041 7.88051 11.7707 7.89165 11.7371 7.8985C11.757 7.95598 11.8081 7.93635 11.8452 7.9363C12.1961 7.93548 12.5463 7.98505 12.8984 7.94286C12.9839 7.9326 13.1078 7.92042 13.1246 8.04903C13.1379 8.15022 13.0303 8.16938 12.9603 8.20776C12.7088 8.34581 12.4284 8.46721 12.6211 8.84397C12.6451 8.89102 12.5826 8.9345 12.5837 8.97106C12.5932 9.29596 12.3092 9.54991 12.3698 9.88864C12.3869 9.98391 12.327 10.0833 12.2302 10.1132C12.0186 10.1784 11.854 10.3649 11.6124 10.3499C11.5895 10.3485 11.5612 10.3501 11.5435 10.3622C11.1976 10.5988 10.7369 10.7111 10.6211 11.1991C10.5771 11.3844 10.4686 11.4076 10.303 11.3602C10.0408 11.2852 9.91115 11.0857 9.77943 10.8703C9.64297 10.6471 9.58379 10.4451 9.79279 10.2355C9.82543 10.2028 9.82314 10.1618 9.7775 10.1191C9.67326 10.0216 9.48904 9.70214 9.46139 9.5959C9.3766 9.27001 9.05211 9.00393 8.73061 9.08983C8.37535 9.18475 8.2475 8.94827 8.06908 8.76112C7.99654 8.68507 8.06012 8.63186 8.12568 8.59911C8.21949 8.55217 8.33 8.55247 8.42088 8.4876C8.49453 8.43505 8.49951 8.39016 8.46195 8.31282C8.42234 8.2312 8.37383 8.25991 8.32016 8.28141C8.00088 8.40926 7.71752 8.56589 7.6127 8.93731C7.5776 9.06182 7.47928 9.16342 7.44705 9.30604C7.41934 9.42874 7.25129 9.40079 7.13797 9.41919C7.09666 9.42592 7.02512 9.38684 7.02148 9.44403C7.01879 9.48645 7.10463 9.46618 7.14143 9.48733C7.39607 9.63346 7.71189 9.54452 7.96607 9.72856C8.16846 9.8751 8.40693 9.95192 8.50543 10.2274C8.55348 10.3619 8.73975 10.4105 8.88002 10.4695C8.94559 10.497 9.04068 10.5183 8.96908 10.6031C8.91301 10.6695 8.88641 10.8287 8.73641 10.7496C8.6859 10.7229 8.64828 10.6722 8.60369 10.6338C8.57779 10.6115 8.5427 10.5816 8.51393 10.6068C8.48217 10.6346 8.51311 10.6692 8.5352 10.6943C8.56625 10.7297 8.60422 10.7596 8.63176 10.7973C8.68203 10.8661 8.81375 10.9304 8.71068 11.0252C8.63293 11.0967 8.53502 11.2119 8.40336 11.1501C8.14396 11.0285 7.91158 10.8327 7.59383 10.8892C7.56371 10.8945 7.53412 10.8546 7.53359 10.8162C7.53295 10.7733 7.56354 10.7557 7.6018 10.7527C7.66033 10.748 7.72227 10.7565 7.77699 10.7402C7.92723 10.6955 8.01951 10.5098 7.96602 10.376C7.90385 10.2205 7.52721 10.0398 7.34891 10.0602C7.22252 10.0747 7.30502 10.1245 7.29646 10.1782C7.27238 10.3296 7.39303 10.5696 7.07076 10.5825C6.95633 10.5871 7.04691 10.6814 7.09303 10.7241C7.17682 10.8018 7.37281 10.814 7.34984 10.9271C7.32799 11.0349 7.13691 10.8782 7.04006 10.988C6.99975 11.0337 6.92457 11.0384 6.87641 10.9991C6.68738 10.8449 6.57324 11.005 6.45254 11.1006C6.09348 11.3851 6.1083 11.5424 6.52514 11.7432C6.61941 11.7887 6.70631 11.857 6.80721 11.8815C7.07006 11.9456 7.294 12.0435 7.36004 12.3442C7.3717 12.3972 7.43709 12.4932 7.51613 12.419C7.55961 12.3782 7.5599 12.3101 7.52633 12.2608C7.42338 12.1096 7.44283 12.0093 7.61943 11.932C7.69824 11.8976 7.67428 11.8068 7.64129 11.7438C7.58264 11.6319 7.60514 11.5139 7.59975 11.3977C7.58604 11.0997 7.75338 10.9907 8.02168 11.1322C8.12369 11.1861 8.24105 11.2492 8.29818 11.3412C8.39404 11.4955 8.46939 11.5754 8.6549 11.4604C8.77549 11.3857 8.86127 11.5004 8.90024 11.5938C8.98549 11.7982 9.14141 11.9298 9.30008 12.0708C9.4209 12.1782 9.61209 12.2746 9.4983 12.5045C9.4615 12.5787 9.54459 12.5951 9.59012 12.6258C9.66922 12.6792 9.74322 12.7383 9.7608 12.8402C9.76889 12.887 9.73859 12.9696 9.73285 12.9651C9.60336 12.8649 9.44873 12.9603 9.32135 12.9092C9.23545 12.8748 9.23064 12.7837 9.26281 12.6949C9.31221 12.5584 9.24066 12.5619 9.13895 12.5871C9.07133 12.6039 8.9968 12.6146 8.92889 12.6043C8.68408 12.5675 8.69785 12.6507 8.77227 12.8459C8.8383 13.0192 8.90592 13.0057 9.02908 12.9361C9.08668 12.9036 9.14732 12.9109 9.17428 12.9785C9.19988 13.0426 9.15992 13.1177 9.111 13.1256C8.92742 13.1554 8.77754 13.3765 8.55945 13.221C8.49383 13.1743 8.38355 13.2098 8.3723 13.262C8.32777 13.4692 8.15316 13.5237 8.00914 13.6188C7.98195 13.6368 7.96209 13.6735 7.9502 13.7057C7.8442 13.9915 7.69273 14.2362 7.4416 14.4283C7.31398 14.5259 7.30572 14.6957 7.43668 14.836C7.50096 14.9049 7.51912 14.9999 7.43252 15.0495C7.34674 15.0985 7.33467 14.9754 7.28316 14.9373C7.22826 14.8967 7.18186 14.8378 7.14705 14.7779C7.04445 14.6017 6.88689 14.5827 6.71908 14.6365C6.61637 14.6694 6.51717 14.6943 6.41012 14.6944C6.19941 14.6945 6.01133 14.6841 6.0602 15.0138C6.07842 15.1368 5.90252 15.275 6.06342 15.432C6.18061 15.5463 6.28648 15.6006 6.43432 15.5083C6.48418 15.4772 6.53082 15.4407 6.58127 15.4105C6.65475 15.3665 6.74615 15.3328 6.81623 15.3762C6.92375 15.4429 6.81846 15.5267 6.79004 15.5845C6.69863 15.7709 6.71662 15.8675 6.95059 15.8656C7.07539 15.8646 7.14506 15.948 7.14793 16.0707C7.15063 16.1857 7.10188 16.3302 7.24889 16.3746C7.40223 16.4209 7.59687 16.4366 7.71652 16.341C7.9741 16.1351 8.22787 16.1787 8.50479 16.2655C8.57926 16.2888 8.6566 16.2998 8.73447 16.3049C9.18365 16.3346 9.43086 16.7588 9.84324 16.859C9.98387 17.3457 10.4864 17.2705 10.81 17.4725C10.8938 17.5249 11.0015 17.5518 11.0922 17.6078C11.2671 17.7158 11.3154 17.8545 11.1826 18.0173C11.0499 18.1802 11.0156 18.3709 10.9591 18.5637C10.8662 18.8807 10.809 19.2468 10.3534 19.2756C10.2306 19.2834 10.1668 19.3989 10.1305 19.5223C9.98469 20.0173 9.93201 20.0695 9.39723 20.2761C9.35574 20.2921 9.34373 20.3085 9.35732 20.3466C9.44135 20.5818 9.28027 20.6459 9.10982 20.6618C8.95051 20.6767 8.94236 20.8092 8.87914 20.8955C8.76547 21.0506 8.73899 21.2618 8.56953 21.385C8.55898 21.3926 8.57082 21.4608 8.59103 21.4763C8.70061 21.5604 8.65203 21.6146 8.58236 21.7021C8.35127 21.9928 8.35543 22.0087 8.56297 22.311C8.59613 22.3593 8.66023 22.3953 8.55611 22.4303C8.27463 22.525 8.01037 22.3941 7.90373 22.1139C7.82053 21.8953 7.81561 21.6565 7.87373 21.4522C7.99508 21.0255 7.97738 20.5821 8.08051 20.1495C8.15943 19.8182 8.22313 19.4497 8.2284 19.0891C8.23174 18.8635 8.14174 18.6898 7.96303 18.5841C7.76521 18.4672 7.65436 18.3029 7.57982 18.0982C7.56002 18.0438 7.52445 17.9953 7.49943 17.9425C7.4334 17.8034 7.17102 17.7574 7.3216 17.511C7.40305 17.3777 7.36725 17.1839 7.5173 17.0737C7.61393 17.0028 7.61885 16.8997 7.62441 16.79C7.63039 16.6729 7.60215 16.6246 7.4733 16.6121C7.24027 16.5895 6.996 16.5643 6.93857 16.2599C6.92609 16.1937 6.84688 16.1865 6.79443 16.1759C6.52373 16.1208 6.31021 15.9411 5.99732 15.9297C5.73324 15.9201 5.37734 15.7861 5.24334 15.4344C5.18416 15.279 5.11795 15.1661 4.87309 15.2157C4.67281 15.2562 4.54285 15.0043 4.47488 14.8218C4.36889 14.5374 4.21777 14.3189 3.97303 14.123C3.70848 13.9113 3.63582 13.5635 3.6425 13.2255C3.64707 12.9945 3.66459 12.7759 3.41615 12.6502C3.36324 12.6234 3.34156 12.5804 3.33424 12.5112C3.30512 12.237 3.28262 12.2217 2.99141 12.1985C2.89771 12.1911 2.90141 12.1115 2.86695 12.0535C2.65514 11.6971 2.38613 11.4333 1.93666 11.3847C1.77377 11.3671 1.67375 11.4511 1.54373 11.4762C1.40574 11.5029 1.2415 11.4386 1.33221 11.695C1.35898 11.7708 1.24021 11.8856 1.14307 11.8542C0.965469 11.7967 0.880859 11.8919 0.789805 12.0048C0.768125 12.0316 0.740469 12.0731 0.714277 12.0741C0.39248 12.0863 0.126465 12.2997 -0.191289 12.323L-0.211914 12.2619ZM6.47768 9.63124C6.41996 9.64096 6.36231 9.65233 6.32229 9.70032C6.27664 9.75504 6.29381 9.81247 6.33195 9.85829C6.45547 10.0066 6.54729 10.1903 6.76578 10.2345C6.8082 10.2431 6.75477 10.3722 6.84623 10.3496C6.89088 10.3386 6.93688 10.2724 6.95305 10.2219C6.97391 10.1566 6.91455 10.1112 6.85924 10.0975C6.66969 10.0508 6.60277 9.91653 6.58244 9.74098C6.57547 9.68104 6.55719 9.62526 6.47768 9.63124Z" fill="#B84A06"/>
<path d="M26.1683 18.3521C26.1652 18.1793 26.1717 18.0313 25.9861 17.9864C25.9635 17.981 25.9221 17.9687 25.9228 17.9634C25.9639 17.6059 25.6489 17.6636 25.466 17.5667C25.4256 17.5453 25.3916 17.5088 25.3598 17.4746C25.3029 17.4132 25.2367 17.3379 25.3024 17.259C25.3793 17.1665 25.5023 17.1974 25.5435 17.2805C25.6297 17.4545 25.7366 17.4028 25.8845 17.3898C26.212 17.3608 26.4746 17.5361 26.6531 17.7945C26.7224 17.8949 26.9171 18.0074 26.8568 18.0739C26.7606 18.18 26.6369 18.0179 26.5277 17.9628C26.4398 17.9185 26.3632 17.9406 26.3052 18.0078C26.2405 18.0829 26.2835 18.1574 26.3202 18.2355C26.4991 18.616 26.7621 18.9391 27.0133 19.2705C27.2471 19.5789 27.2603 19.7492 27.0728 20.0853C27.0381 20.1474 27.0026 20.2091 26.9731 20.2737C26.7468 20.7704 26.3716 20.8316 25.9868 20.4672C25.8048 20.2947 25.5855 20.1597 25.3746 20.0205C25.2432 19.9336 25.1084 19.9753 24.9757 20.0491C24.7599 20.1692 24.5338 20.2545 24.2811 20.2796C24.005 20.3069 24.0017 20.3225 23.9629 20.0431C23.9295 19.8028 23.7858 19.5931 23.8191 19.3282C23.8456 19.1168 23.9253 19.0118 24.1208 18.9562C24.2824 18.9103 24.4339 18.8809 24.5121 18.6614C24.5556 18.5397 24.7846 18.4176 24.9752 18.4266C25.0861 18.4318 25.1483 18.4146 25.2038 18.3202C25.291 18.172 25.4408 18.1885 25.5827 18.1992C25.6751 18.2061 25.7525 18.2483 25.7298 18.353C25.6785 18.5891 25.8304 18.6679 26.0039 18.6584C26.2032 18.6474 26.1494 18.4545 26.1683 18.3521ZM15.449 8.32697C15.3355 8.35498 15.181 8.2338 15.1089 8.40789C15.0349 8.58666 15.2408 8.6333 15.2908 8.75558C15.3187 8.82367 15.3787 8.86205 15.434 8.90605C15.5339 8.98539 15.6397 8.99757 15.7042 8.8839C15.8036 8.70871 15.9115 8.70566 16.0566 8.81857C16.0942 8.84781 16.1468 8.84148 16.1866 8.80861C16.2163 8.78406 16.2326 8.739 16.2029 8.71685C15.8904 8.48365 16.17 8.5232 16.3042 8.4867C16.3586 8.47187 16.4081 8.43513 16.4564 8.40314C16.4836 8.38515 16.5215 8.35726 16.5227 8.33236C16.5245 8.29498 16.4779 8.2897 16.4454 8.28754C16.2818 8.27675 16.1282 8.19689 15.9429 8.22349C15.7753 8.18834 15.6184 8.28513 15.449 8.32697ZM5.06242 8.94724C5.00763 8.88595 4.92314 8.87142 4.88945 8.95398C4.75808 9.27578 4.59812 9.03191 4.49839 8.95556C4.23244 8.75207 4.11795 8.74111 3.89218 8.95966C3.79433 9.05441 3.78818 9.11382 3.93466 9.14312C4.1299 9.18215 4.31341 9.23828 4.49002 9.34328C4.70394 9.47048 5.13449 9.35306 5.30582 9.15554C5.33517 9.12437 5.33845 9.09326 5.3057 9.06214C5.2024 9.0707 5.1291 9.02183 5.06242 8.94724ZM23.4188 17.1039C23.4062 17.1129 23.404 17.1494 23.4097 17.1696C23.455 17.3291 23.503 17.4891 23.6934 17.5351C23.858 17.5749 23.9785 17.5302 24.0831 17.3817C24.2142 17.1956 24.1546 16.9747 24.2296 16.7795C24.2573 16.7075 24.1649 16.6693 24.0434 16.6684C23.8544 16.7993 23.6355 16.95 23.4188 17.1039ZM18.3749 18.2846C18.2283 18.3876 18.0249 18.4683 17.9496 18.6251C17.8628 18.8057 17.8315 19.0243 17.8441 19.2357C17.8485 19.31 17.8876 19.3693 17.968 19.3836C18.0654 19.4009 18.1811 19.3945 18.2089 19.2947C18.2861 19.0181 18.4356 18.7644 18.4737 18.4936C18.441 18.4016 18.4716 18.2166 18.3749 18.2846ZM19.1055 9.98798C18.863 9.71869 18.8633 9.66191 19.1384 9.43357C19.3007 9.29886 19.4778 9.18677 19.6888 9.13697C19.7789 9.1157 19.867 9.08136 19.9514 9.04304C19.9739 9.03285 19.9922 8.98545 19.9907 8.95627C19.9878 8.90101 19.9419 8.87236 19.892 8.88461C19.4375 8.99576 18.9827 9.1075 18.6883 9.52228C18.5706 9.6881 18.6111 9.86839 18.7912 9.9581C18.8899 10.0073 18.9969 9.99156 19.1016 9.99279L19.1055 9.98798ZM28.6766 21.3467C28.7614 21.1421 28.9158 21.0139 29.0875 20.8864C29.2959 20.7317 29.2809 20.6199 29.0659 20.4495C29.0205 20.4136 28.975 20.3546 28.9162 20.3814C28.8453 20.4138 28.8904 20.4817 28.8998 20.5357C28.9268 20.6917 28.9059 20.7983 28.7346 20.8888C28.5892 20.9658 28.4857 21.1295 28.3765 21.2652C28.2904 21.372 28.3369 21.4851 28.4707 21.4929C28.5626 21.4941 28.6415 21.4313 28.6766 21.3467ZM26.1659 13.5787C26.1187 13.5515 26.069 13.561 26.0443 13.6055C25.8945 13.8754 25.6445 14.0072 25.3724 14.1183C25.2611 14.1637 25.1836 14.2574 25.1893 14.3922C25.1915 14.4444 25.2205 14.4904 25.2751 14.4661C25.5239 14.3556 25.7806 14.2563 26.0124 14.1164C26.1519 14.0323 26.1991 13.8551 26.2314 13.7177C26.2352 13.6398 26.2086 13.6032 26.1659 13.5787ZM22.3732 8.13701C22.2045 8.02691 22.1005 8.13173 22.0375 8.26211C21.9719 8.39769 22.0197 8.51734 22.1788 8.56293C22.3029 8.59849 22.429 8.62697 22.5542 8.65861C22.6269 8.60019 22.6688 8.52033 22.708 8.43847C22.6306 8.2999 22.5006 8.22015 22.3732 8.13701ZM25.8304 9.13433C25.761 9.25615 25.9093 9.27472 25.9618 9.33918C25.9838 9.36625 26.0086 9.39144 26.0274 9.42056C26.0802 9.5023 26.1437 9.58797 26.249 9.55351C26.3792 9.51091 26.2183 9.41423 26.2691 9.34802C26.297 9.31158 26.3206 9.2715 26.3503 9.23664C26.4206 9.15408 26.3741 9.1089 26.2969 9.08763C26.2304 9.06935 26.159 9.06912 26.1127 9.06367C25.9978 9.07351 25.8814 9.04498 25.8304 9.13433ZM24.5075 16.2735C24.6214 16.3719 24.725 16.2937 24.7826 16.2241C24.845 16.1488 24.7762 16.0613 24.6849 16.0432C24.5198 16.0105 24.5099 15.9297 24.5672 15.7915C24.5915 15.7329 24.522 15.6825 24.4664 15.6675C24.3921 15.6473 24.3655 15.7144 24.347 15.7685C24.3321 15.812 24.3338 15.8612 24.3281 15.9078C24.3166 16.0653 24.3949 16.1762 24.5075 16.2735ZM24.23 17.4095C24.2386 17.514 24.2535 17.6636 24.3671 17.6897C24.4284 17.7037 24.5851 17.6484 24.5748 17.5106C24.5673 17.4097 24.5435 17.2981 24.4023 17.2833C24.3181 17.2874 24.2223 17.316 24.23 17.4095Z" fill="#B84A06"/>
</g>
<defs>
<clipPath id="clip0_24_82">
<rect width="30" height="30" fill="white"/>
</clipPath>
</defs>
</svg>
