<svg width="34" height="34" viewBox="0 0 34 34" fill="none" xmlns="http://www.w3.org/2000/svg">
<rect width="34" height="34" rx="17" fill="#474522"/>
<rect x="0.5" y="0.5" width="33" height="33" rx="16.5" stroke="white" stroke-opacity="0.31"/>
<path d="M17.3311 8.09424C20.7366 8.09424 22.4395 8.0944 23.666 8.90576C24.2137 9.26814 24.6835 9.73702 25.0459 10.2847C25.8575 11.5113 25.8574 13.2147 25.8574 16.6206C25.8574 20.0261 25.8572 21.729 25.0459 22.9556C24.6835 23.5033 24.2137 23.973 23.666 24.3354C22.4395 25.1468 20.7366 25.147 17.3311 25.147C13.9251 25.147 12.2217 25.1471 10.9951 24.3354C10.4475 23.973 9.97859 23.5032 9.61621 22.9556C8.80485 21.729 8.80469 20.0262 8.80469 16.6206C8.80469 13.2147 8.80461 11.5113 9.61621 10.2847C9.97855 9.73712 10.4476 9.2681 10.9951 8.90576C12.2217 8.09416 13.9251 8.09424 17.3311 8.09424ZM17.3311 12.2065C14.8932 12.2065 12.9171 14.1828 12.917 16.6206C12.917 19.0585 14.8932 21.0347 17.3311 21.0347C19.7688 21.0346 21.7451 19.0584 21.7451 16.6206C21.745 14.1829 19.7688 12.2066 17.3311 12.2065ZM17.3311 13.6997C18.944 13.6998 20.2519 15.0077 20.252 16.6206C20.252 18.2336 18.944 19.5414 17.3311 19.5415C15.718 19.5415 14.4102 18.2337 14.4102 16.6206C14.4102 15.0076 15.718 13.6997 17.3311 13.6997ZM21.9189 10.9478C21.3463 10.948 20.8818 11.4122 20.8818 11.9849C20.8819 12.5575 21.3463 13.0217 21.9189 13.022C22.4918 13.022 22.957 12.5577 22.957 11.9849C22.957 11.412 22.4918 10.9478 21.9189 10.9478Z" fill="#E7E7E7"/>
</svg>
