<svg width="30" height="30" viewBox="0 0 30 30" fill="none" xmlns="http://www.w3.org/2000/svg">
<path d="M27.5 10.2025V10.2937C27.5 11.3687 27.5 11.9075 27.2412 12.3475C26.9825 12.7875 26.5113 13.0487 25.5713 13.5725L24.58 14.1225C25.2625 11.8125 25.4912 9.32996 25.575 7.20746L25.5875 6.93121L25.59 6.86621C26.4037 7.14871 26.8612 7.35996 27.1462 7.75496C27.5 8.24621 27.5 8.89871 27.5 10.2025ZM2.5 10.2025V10.2937C2.5 11.3687 2.5 11.9075 2.75875 12.3475C3.0175 12.7875 3.48875 13.0487 4.42875 13.5725L5.42125 14.1225C4.7375 11.8125 4.50875 9.32996 4.425 7.20746L4.4125 6.93121L4.41125 6.86621C3.59625 7.14871 3.13875 7.35996 2.85375 7.75496C2.5 8.24621 2.5 8.89996 2.5 10.2025Z" fill="#B84A06"/>
<path fill-rule="evenodd" clip-rule="evenodd" d="M15.0005 2.50004C17.2305 2.50004 19.0667 2.69629 20.4717 2.93379C21.8955 3.17379 22.6067 3.29379 23.2017 4.02629C23.7967 4.75879 23.7642 5.55004 23.7017 7.13254C23.4867 12.5688 22.3142 19.3575 15.938 19.9575V24.375H17.7255C18.0143 24.3752 18.2942 24.4754 18.5175 24.6586C18.7409 24.8419 18.8938 25.0968 18.9505 25.38L19.188 26.5625H22.5005C22.7491 26.5625 22.9876 26.6613 23.1634 26.8371C23.3392 27.0129 23.438 27.2514 23.438 27.5C23.438 27.7487 23.3392 27.9871 23.1634 28.163C22.9876 28.3388 22.7491 28.4375 22.5005 28.4375H7.50045C7.25181 28.4375 7.01336 28.3388 6.83754 28.163C6.66173 27.9871 6.56295 27.7487 6.56295 27.5C6.56295 27.2514 6.66173 27.0129 6.83754 26.8371C7.01336 26.6613 7.25181 26.5625 7.50045 26.5625H10.813L11.0505 25.38C11.1071 25.0968 11.26 24.8419 11.4834 24.6586C11.7067 24.4754 11.9866 24.3752 12.2755 24.375H14.063V19.9575C7.68795 19.3575 6.51545 12.5675 6.30045 7.13254C6.2367 5.55004 6.20545 4.75754 6.80045 4.02629C7.3942 3.29379 8.10545 3.17379 9.5292 2.93379C11.3377 2.63753 13.1678 2.49245 15.0005 2.50004ZM16.1905 7.74879L16.068 7.52879C15.593 6.67504 15.3555 6.25004 15.0005 6.25004C14.6455 6.25004 14.408 6.67504 13.933 7.52879L13.8105 7.74879C13.6755 7.99129 13.608 8.11129 13.503 8.19129C13.3967 8.27129 13.2655 8.30129 13.003 8.36004L12.7655 8.41504C11.843 8.62379 11.3817 8.72754 11.2717 9.08004C11.1617 9.43254 11.4767 9.80129 12.1055 10.5363L12.268 10.7263C12.4467 10.935 12.5367 11.0388 12.5767 11.1688C12.6167 11.2988 12.603 11.4375 12.5767 11.7163L12.5517 11.97C12.4567 12.9513 12.4092 13.4425 12.6955 13.66C12.983 13.8775 13.4155 13.6788 14.2792 13.2813L14.5017 13.1788C14.748 13.0663 14.8705 13.01 15.0005 13.01C15.1305 13.01 15.253 13.0663 15.4992 13.1788L15.7217 13.2813C16.5855 13.68 17.018 13.8775 17.3055 13.66C17.593 13.4425 17.5442 12.9513 17.4492 11.97L17.4242 11.7163C17.398 11.4375 17.3842 11.2988 17.4242 11.1688C17.4642 11.0388 17.5542 10.935 17.733 10.7263L17.8955 10.5363C18.5242 9.80129 18.8392 9.43379 18.7292 9.08004C18.6192 8.72754 18.158 8.62379 17.2355 8.41504L16.998 8.36004C16.7355 8.30129 16.6042 8.27254 16.498 8.19129C16.393 8.11129 16.3255 7.99129 16.1905 7.74879Z" fill="#B84A06"/>
</svg>
