<svg width="34" height="34" viewBox="0 0 34 34" fill="none" xmlns="http://www.w3.org/2000/svg">
<rect width="34" height="34" rx="17" fill="#474522"/>
<rect x="0.5" y="0.5" width="33" height="33" rx="16.5" stroke="white" stroke-opacity="0.31"/>
<path d="M9 9.69496C9 9.12256 9.18019 8.65034 9.54054 8.2783C9.9009 7.90624 10.3694 7.72021 10.9459 7.72021C11.5122 7.72021 11.9704 7.90337 12.3205 8.26971C12.6808 8.64749 12.861 9.13973 12.861 9.74648C12.861 10.296 12.686 10.7539 12.3359 11.1202C11.9756 11.498 11.5019 11.6869 10.9151 11.6869H10.8996C10.3333 11.6869 9.87517 11.498 9.5251 11.1202C9.17503 10.7424 9 10.2673 9 9.69496ZM9.20077 24.7202V13.2495H12.6293V24.7202H9.20077ZM14.529 24.7202H17.9575V18.3152C17.9575 17.9145 17.9987 17.6054 18.0811 17.3879C18.2252 16.9987 18.444 16.6695 18.7375 16.4005C19.0309 16.1315 19.399 15.997 19.8417 15.997C20.9949 15.997 21.5714 16.8613 21.5714 18.5899V24.7202H25V18.1434C25 16.4492 24.6396 15.1642 23.9189 14.2884C23.1982 13.4126 22.2458 12.9748 21.0618 12.9748C19.7336 12.9748 18.6988 13.6101 17.9575 14.8808V14.9152H17.9421L17.9575 14.8808V13.2495H14.529C14.5495 13.6158 14.5598 14.7549 14.5598 16.6667C14.5598 18.5785 14.5495 21.263 14.529 24.7202Z" fill="#E7E7E7"/>
</svg>
