<svg width="24" height="24" viewBox="0 0 24 24" fill="none" xmlns="http://www.w3.org/2000/svg">
<g clip-path="url(#clip0_24_85)">
<path d="M14.6205 2.6619C14.8103 2.715 14.9878 2.80499 15.1428 2.92673C15.2978 3.04846 15.4273 3.19956 15.5239 3.37137C15.6204 3.54318 15.6822 3.73234 15.7057 3.92804C15.7291 4.12374 15.7137 4.32214 15.6605 4.5119L11.2295 20.2989C11.1221 20.682 10.8669 21.0067 10.52 21.2017C10.1732 21.3966 9.76307 21.4458 9.37997 21.3384C8.99686 21.231 8.67212 20.9758 8.47717 20.6289C8.28223 20.2821 8.23306 19.872 8.34047 19.4889L12.7715 3.6999C12.8247 3.51018 12.9148 3.3328 13.0365 3.1779C13.1583 3.023 13.3094 2.89361 13.4812 2.79713C13.653 2.70064 13.8421 2.63895 14.0378 2.61557C14.2334 2.5922 14.4318 2.6076 14.6215 2.6609L14.6205 2.6619ZM7.56047 6.6969C7.84137 6.97815 7.99915 7.35939 7.99915 7.7569C7.99915 8.1544 7.84137 8.53565 7.56047 8.8169L4.38047 11.9999L7.56247 15.1819C7.84373 15.4633 8.00169 15.8449 8.0016 16.2427C8.0015 16.6406 7.84336 17.0221 7.56197 17.3034C7.28057 17.5847 6.89897 17.7426 6.50112 17.7425C6.10326 17.7424 5.72173 17.5843 5.44047 17.3029L1.19747 13.0599C0.916568 12.7786 0.758789 12.3974 0.758789 11.9999C0.758789 11.6024 0.916568 11.2211 1.19747 10.9399L5.43947 6.6969C5.57877 6.55751 5.74417 6.44693 5.92622 6.37149C6.10827 6.29605 6.30341 6.25722 6.50047 6.25722C6.69753 6.25722 6.89267 6.29605 7.07472 6.37149C7.25677 6.44693 7.42117 6.55751 7.56047 6.6969ZM16.4405 8.8169C16.2931 8.67957 16.1749 8.51397 16.0929 8.32997C16.0109 8.14597 15.9668 7.94735 15.9633 7.74594C15.9597 7.54454 15.9968 7.34448 16.0722 7.1577C16.1477 6.97092 16.26 6.80126 16.4024 6.65882C16.5448 6.51638 16.7145 6.40409 16.9013 6.32865C17.0881 6.25321 17.2881 6.21616 17.4895 6.21971C17.6909 6.22327 17.8895 6.26735 18.0735 6.34933C18.2575 6.43132 18.4231 6.54952 18.5605 6.6969L22.8035 10.9389C23.0847 11.2202 23.2426 11.6017 23.2426 11.9994C23.2426 12.3971 23.0847 12.7786 22.8035 13.0599L18.5615 17.3029C18.4222 17.4422 18.2569 17.5528 18.0749 17.6282C17.8929 17.7036 17.6978 17.7425 17.5008 17.7425C17.3038 17.7426 17.1087 17.7038 16.9267 17.6285C16.7447 17.5531 16.5793 17.4427 16.44 17.3034C16.3006 17.1641 16.1901 16.9988 16.1147 16.8168C16.0392 16.6348 16.0004 16.4397 16.0003 16.2427C16.0003 16.0457 16.0391 15.8507 16.1144 15.6686C16.1897 15.4866 16.3002 15.3212 16.4395 15.1819L19.6215 11.9999L16.4405 8.8169Z" fill="#B84A06"/>
</g>
<defs>
<clipPath id="clip0_24_85">
<rect width="24" height="24" fill="white"/>
</clipPath>
</defs>
</svg>
