<svg width="27" height="27" viewBox="0 0 27 27" fill="none" xmlns="http://www.w3.org/2000/svg">
<g clip-path="url(#clip0_24_67)">
<path d="M10.9354 0.726562V0.729938C15.3327 4.34161 8.26008 6.3182 8.97262 9.97005C7.88893 9.24432 7.49258 7.50947 8.50962 6.01656C5.81568 7.17329 4.63786 8.75822 4.70452 11.1614C4.75435 12.9613 5.47644 14.4088 6.59467 15.4956C6.07856 14.0481 5.96102 12.5561 6.32109 11.2867C8.20592 13.8882 13.5871 10.2323 14.078 7.10589C14.0757 10.4637 17.4528 13.347 20.0221 9.86786C20.4931 11.8174 20.3721 13.8391 19.8524 15.4412C20.8758 14.3688 21.5244 12.9453 21.5596 11.1615C21.6086 8.67627 20.4496 6.3732 18.2521 5.21568C19.2092 7.26589 18.2258 8.67495 15.95 9.63219C18.0741 6.07293 16.8141 1.48715 10.9352 0.726668L10.9354 0.726562ZM13.1997 12.6611C12.8849 12.6566 12.5372 12.7821 12.1104 13.1027C10.0939 14.6175 7.44127 17.1638 6.88144 18.8359C5.89705 18.6055 4.60564 18.9584 4.60564 19.9186C4.60564 20.0245 4.62251 20.1237 4.65178 20.2152C4.12918 20.1941 3.58549 20.4209 3.58549 20.9024C3.58549 21.7987 5.47022 21.835 5.59272 20.9897C6.13884 21.1468 6.80282 21.1131 7.29172 20.8827C7.25217 20.9798 7.23081 21.0866 7.23081 21.2041C7.23081 22.4039 9.4939 22.5724 10.0916 21.6836C10.5944 22.05 11.6629 21.9431 11.8237 21.354C12.6658 21.428 13.5315 21.4466 14.3779 21.4051C14.8284 21.7094 15.6853 21.6582 15.9929 21.2469C16.6673 21.1447 17.3115 20.998 17.8997 20.8036C17.9999 21.6587 19.9085 21.6431 19.9085 20.7327C19.9085 20.6932 19.906 20.6552 19.8987 20.619C20.4913 20.7789 21.3011 20.5663 21.3011 19.973C21.3011 19.3916 20.4777 19.1766 19.8838 19.3386C19.9028 17.829 16.7933 15.0794 14.3434 13.1901C13.9537 12.8896 13.6044 12.6669 13.1997 12.6611V12.6611ZM23.2027 18.5888C22.6993 18.5865 22.1958 18.8145 22.1958 19.2776C22.1958 20.204 24.2096 20.2124 24.2096 19.2776C24.2096 18.8232 23.7062 18.591 23.2027 18.5888ZM1.93264 19.1161C1.42918 19.1139 0.925781 19.3418 0.925781 19.805C0.925781 20.7313 2.93955 20.7398 2.93955 19.805C2.93955 19.3506 2.43609 19.1184 1.93264 19.1161ZM24.6381 20.1922C24.1346 20.19 23.6311 20.4179 23.6311 20.8811C23.6311 21.8074 25.645 21.8158 25.645 20.8811C25.645 20.4266 25.1415 20.1944 24.6381 20.1921L24.6381 20.1922ZM22.0177 21.5336C21.451 21.5312 20.8839 21.7868 20.8839 22.3082C20.8839 23.351 23.1515 23.3605 23.1515 22.3082C23.1515 21.7966 22.5846 21.5361 22.0177 21.5337V21.5336ZM17.8007 21.6903C17.2972 21.6892 16.7938 21.9215 16.7938 22.3889C16.7938 23.0237 17.7767 23.2234 18.3692 22.9707C18.8651 23.4398 20.2001 23.3114 20.2001 22.557C20.2 21.9097 19.2188 21.7127 18.6263 21.9703C18.435 21.7855 18.1181 21.6909 17.8006 21.6902L17.8007 21.6903ZM13.2012 21.7759C12.6978 21.7737 12.1944 21.9999 12.1944 22.4631C12.1944 23.3894 14.2082 23.3978 14.2082 22.4631C14.2082 22.0086 13.7047 21.7781 13.2013 21.7758L13.2012 21.7759ZM6.39196 22.5521C5.7987 22.5508 5.20544 22.8221 5.20544 23.3728C5.20544 24.0278 6.09296 24.2893 6.78246 24.1439C7.24051 24.6625 8.65453 24.5495 8.65453 23.7732C8.65453 23.2686 8.05652 23.0369 7.51252 23.081C7.34239 22.7299 6.86721 22.553 6.39191 22.5521L6.39196 22.5521ZM15.5431 23.1503C15.0998 23.1483 14.6571 23.3018 14.4752 23.6133C13.695 23.3971 12.6163 23.6681 12.6163 24.4456C12.6163 25.5685 14.867 25.665 15.2168 24.7093C15.8791 24.8316 16.6983 24.5778 16.6983 23.9397C16.6983 23.4186 16.1204 23.1528 15.5431 23.1502V23.1503ZM10.4278 24.345C9.86104 24.3425 9.29562 24.5981 9.29562 25.1196C9.29562 26.1625 11.5616 26.1719 11.5616 25.1196C11.5616 24.6081 10.9946 24.3476 10.4278 24.345ZM22.4579 24.4192C21.9544 24.4171 21.451 24.6449 21.451 25.108C21.451 26.0344 23.4649 26.0428 23.4649 25.108C23.4649 24.6537 22.9614 24.4214 22.4579 24.4192H22.4579Z" fill="#B84A06"/>
</g>
<defs>
<clipPath id="clip0_24_67">
<rect width="27" height="27" fill="white"/>
</clipPath>
</defs>
</svg>
