<svg width="34" height="34" viewBox="0 0 34 34" fill="none" xmlns="http://www.w3.org/2000/svg">
<rect width="34" height="34" rx="17" fill="#474522"/>
<rect x="0.5" y="0.5" width="33" height="33" rx="16.5" stroke="white" stroke-opacity="0.31"/>
<path d="M24.9098 24.3528C24.8472 24.4639 24.7551 24.5566 24.6432 24.6212C24.5312 24.6858 24.4036 24.72 24.2734 24.7202H19.9097C19.7873 24.7202 19.6669 24.6901 19.5596 24.6326C19.4523 24.5752 19.3617 24.4923 19.296 24.3917L15.6151 18.7578L10.2658 24.4882C10.1354 24.6247 9.95508 24.7055 9.76387 24.7133C9.57266 24.7211 9.386 24.6552 9.24437 24.5298C9.10274 24.4044 9.01755 24.2298 9.00727 24.0436C8.99699 23.8575 9.06245 23.675 9.18945 23.5355L14.805 17.5147L9.11399 8.80928C9.0439 8.70218 9.00466 8.5787 9.00039 8.45176C8.99612 8.32483 9.02696 8.19911 9.0897 8.08777C9.15243 7.97643 9.24475 7.88357 9.35699 7.8189C9.46922 7.75424 9.59724 7.72015 9.72764 7.72021H14.0914C14.2138 7.72025 14.3342 7.75038 14.4415 7.8078C14.5487 7.86522 14.6394 7.94808 14.705 8.0487L18.386 13.6826L23.7352 7.95219C23.8656 7.81577 24.046 7.7349 24.2372 7.72712C24.4284 7.71934 24.6151 7.78527 24.7567 7.91063C24.8983 8.03599 24.9835 8.21066 24.9938 8.39678C25.0041 8.5829 24.9386 8.76547 24.8116 8.9049L19.196 14.9213L24.8871 23.632C24.9568 23.7392 24.9957 23.8626 24.9997 23.9894C25.0037 24.1162 24.9726 24.2417 24.9098 24.3528Z" fill="#E7E7E7"/>
</svg>
