<svg width="34" height="34" viewBox="0 0 34 34" fill="none" xmlns="http://www.w3.org/2000/svg">
<rect width="34" height="34" rx="17" fill="#474522"/>
<rect x="0.5" y="0.5" width="33" height="33" rx="16.5" stroke="white" stroke-opacity="0.31"/>
<path d="M17.6752 22.1784L14.1933 22.1126C13.0659 22.0897 11.9358 22.1355 10.8305 21.8979C9.1492 21.543 9.03008 19.8028 8.90544 18.3432C8.73371 16.291 8.80019 14.2016 9.12428 12.1667C9.30725 11.0248 10.0273 10.3435 11.1408 10.2693C14.8996 10.0002 18.6835 10.0321 22.4341 10.1577C22.8302 10.1692 23.229 10.2321 23.6196 10.3037C25.5475 10.6529 25.5946 12.6249 25.7195 14.2849C25.8442 15.9621 25.7915 17.6479 25.5533 19.3137C25.3622 20.6929 24.9965 21.8495 23.4533 21.9612C21.5198 22.1072 19.6307 22.2247 17.6918 22.1873C17.6918 22.1784 17.6807 22.1784 17.6752 22.1784ZM15.6282 18.6866C17.0852 17.8222 18.5145 16.9722 19.9632 16.1136C18.5034 15.2491 17.0769 14.3991 15.6282 13.5405V18.6866Z" fill="#E7E7E7"/>
</svg>
